<svg width="512" height="512" viewBox="0 0 512 512" fill="none" xmlns="http://www.w3.org/2000/svg">
  <defs>
    <radialGradient id="bgGradient" cx="0" cy="0" r="1" gradientUnits="userSpaceOnUse" gradientTransform="translate(256 256) rotate(90) scale(256)">
      <stop stop-color="#0f0c29"/>
      <stop offset="1" stop-color="#24243e"/>
    </radialGradient>
    <linearGradient id="cyberNeon" x1="0" y1="0" x2="512" y2="512">
      <stop stop-color="#00f2ff"/>
      <stop offset="1" stop-color="#bd00ff"/>
    </linearGradient>
    <filter id="glow" x="-50%" y="-50%" width="200%" height="200%">
      <feGaussianBlur stdDeviation="4" result="coloredBlur"/>
      <feMerge>
        <feMergeNode in="coloredBlur"/>
        <feMergeNode in="SourceGraphic"/>
      </feMerge>
    </filter>
  </defs>

  <circle cx="256" cy="256" r="240" fill="url(#bgGradient)"/>
  <circle cx="256" cy="256" r="230" stroke="url(#cyberNeon)" stroke-width="4" stroke-dasharray="20 10" opacity="0.6"/>
  <circle cx="256" cy="256" r="200" stroke="#00f2ff" stroke-width="2" opacity="0.3"/>

  <g opacity="0.4" stroke="#00f2ff" stroke-width="2">
    <path d="M256 100V50M256 462V412M100 256H50M462 256H412"/>
    <circle cx="256" cy="50" r="6" fill="#00f2ff"/>
    <circle cx="256" cy="462" r="6" fill="#00f2ff"/>
    <circle cx="50" cy="256" r="6" fill="#00f2ff"/>
    <circle cx="462" cy="256" r="6" fill="#00f2ff"/>
  </g>

  <g filter="url(#glow)">
    <path d="M186 220V170C186 131.34 217.34 100 256 100C294.66 100 326 131.34 326 170V220" stroke="url(#cyberNeon)" stroke-width="16" stroke-linecap="round"/>
    
    <circle cx="256" cy="170" r="40" fill="#0f0c29" stroke="url(#cyberNeon)" stroke-width="4"/>
    
    <path d="M166 220H346C357.046 220 366 228.954 366 240V380C366 391.046 357.046 400 346 400H166C154.954 400 146 391.046 146 380V240C146 228.954 154.954 220 166 220Z" fill="#1a1a2e" stroke="url(#cyberNeon)" stroke-width="6"/>
    
    <circle cx="256" cy="290" r="20" fill="url(#cyberNeon)"/>
    <path d="M256 290L246 340H266L256 290Z" fill="url(#cyberNeon)"/>
    
    <path d="M190 250L210 270M322 250L302 270M256 340V380" stroke="#00f2ff" stroke-width="3"/>
  </g>
</svg>